STARTFONT 2.1
COMMENT
COMMENT Converted from OpenType font "fake receipt.ttf" by "otf2bdf 3.0".
COMMENT
FONT -FreeType-Fake Receipt-Medium-R-Normal--17-120-100-100-P-79-ISO10646-1
SIZE 12 100 100
FONTBOUNDINGBOX 23 21 -2 -4
STARTPROPERTIES 19
FOUNDRY "FreeType"
FAMILY_NAME "Fake Receipt"
WEIGHT_NAME "Medium"
SLANT "R"
SETWIDTH_NAME "Normal"
ADD_STYLE_NAME ""
PIXEL_SIZE 17
POINT_SIZE 120
RESOLUTION_X 100
RESOLUTION_Y 100
SPACING "P"
AVERAGE_WIDTH 79
CHARSET_REGISTRY "ISO10646"
CHARSET_ENCODING "1"
FONT_ASCENT 16
FONT_DESCENT 3
COPYRIGHT "(c) 1999-2012 Typodermic Fonts Inc. See attached license agreement. If agreement is missing visit typodermicfonts.com for more info. This font is part of the Larabie Fonts collection from Typodermic Fonts."
_OTF_FONTFILE "fake receipt.ttf"
_OTF_PSNAME "FakeReceipt-Regular"
ENDPROPERTIES
CHARS 368
STARTCHAR 0017
ENCODING 23
SWIDTH 660 0
DWIDTH 11 0
BBX 0 0 0 0
BITMAP
ENDCHAR
STARTCHAR 0020
ENCODING 32
SWIDTH 660 0
DWIDTH 11 0
BBX 0 0 0 0
BITMAP
ENDCHAR
STARTCHAR 0021
ENCODING 33
SWIDTH 720 0
DWIDTH 12 0
BBX 2 13 5 0
BITMAP
C0
C0
C0
C0
C0
C0
C0
C0
00
00
00
C0
C0
ENDCHAR
STARTCHAR 0022
ENCODING 34
SWIDTH 660 0
DWIDTH 11 0
BBX 5 5 3 8
BITMAP
D8
D8
D8
D8
D8
ENDCHAR
STARTCHAR 0023
ENCODING 35
SWIDTH 660 0
DWIDTH 11 0
BBX 7 13 2 0
BITMAP
6C
6C
6C
B6
FE
6C
2C
6C
FE
BE
6C
6C
6C
ENDCHAR
STARTCHAR 0024
ENCODING 36
SWIDTH 660 0
DWIDTH 11 0
BBX 7 13 2 0
BITMAP
18
18
7C
3C
D8
7C
3C
1A
1A
1A
FC
BC
18
ENDCHAR
STARTCHAR 0025
ENCODING 37
SWIDTH 600 0
DWIDTH 10 0
BBX 8 13 1 0
BITMAP
63
63
62
0C
18
18
30
30
20
6F
6F
CF
C7
ENDCHAR
STARTCHAR 0026
ENCODING 38
SWIDTH 720 0
DWIDTH 12 0
BBX 8 13 2 0
BITMAP
60
60
D8
D8
D8
63
63
FE
D8
9C
C6
EF
7B
ENDCHAR
STARTCHAR 0027
ENCODING 39
SWIDTH 720 0
DWIDTH 12 0
BBX 4 7 4 6
BITMAP
F0
60
30
60
60
C0
C0
ENDCHAR
STARTCHAR 0028
ENCODING 40
SWIDTH 660 0
DWIDTH 11 0
BBX 5 13 3 0
BITMAP
18
18
60
60
60
C0
80
C0
60
60
60
78
18
ENDCHAR
STARTCHAR 0029
ENCODING 41
SWIDTH 660 0
DWIDTH 11 0
BBX 5 13 3 0
BITMAP
C0
F0
30
10
30
18
10
18
30
30
30
C0
C0
ENDCHAR
STARTCHAR 002A
ENCODING 42
SWIDTH 720 0
DWIDTH 12 0
BBX 8 13 2 0
BITMAP
18
18
DB
6E
7E
18
08
18
7E
7E
DB
DB
18
ENDCHAR
STARTCHAR 002B
ENCODING 43
SWIDTH 720 0
DWIDTH 12 0
BBX 8 8 2 2
BITMAP
18
18
18
FF
FF
18
18
18
ENDCHAR
STARTCHAR 002C
ENCODING 44
SWIDTH 720 0
DWIDTH 12 0
BBX 4 5 4 0
BITMAP
F0
70
30
60
60
ENDCHAR
STARTCHAR 002D
ENCODING 45
SWIDTH 720 0
DWIDTH 12 0
BBX 8 2 2 5
BITMAP
FF
FF
ENDCHAR
STARTCHAR 002E
ENCODING 46
SWIDTH 720 0
DWIDTH 12 0
BBX 4 3 4 0
BITMAP
F0
70
F0
ENDCHAR
STARTCHAR 002F
ENCODING 47
SWIDTH 600 0
DWIDTH 10 0
BBX 8 13 1 0
BITMAP
03
03
02
0C
0C
18
18
30
20
60
60
C0
C0
ENDCHAR
STARTCHAR 0030
ENCODING 48
SWIDTH 660 0
DWIDTH 11 0
BBX 8 13 1 0
BITMAP
3C
3C
66
CF
CF
DB
F3
E3
C3
C3
66
76
3C
ENDCHAR
STARTCHAR 0031
ENCODING 49
SWIDTH 660 0
DWIDTH 11 0
BBX 5 13 3 0
BITMAP
30
30
F0
F0
30
30
30
30
30
30
30
F8
F8
ENDCHAR
STARTCHAR 0032
ENCODING 50
SWIDTH 660 0
DWIDTH 11 0
BBX 8 13 2 0
BITMAP
3E
6F
63
C3
C3
06
30
30
60
40
C0
FF
FF
ENDCHAR
STARTCHAR 0033
ENCODING 51
SWIDTH 660 0
DWIDTH 11 0
BBX 8 13 2 0
BITMAP
7E
FF
C3
03
03
3E
3E
03
C3
C3
C3
7E
3E
ENDCHAR
STARTCHAR 0034
ENCODING 52
SWIDTH 660 0
DWIDTH 11 0
BBX 8 13 2 0
BITMAP
1C
14
3C
6C
6C
CC
C4
CC
FF
BE
0C
0C
0C
ENDCHAR
STARTCHAR 0035
ENCODING 53
SWIDTH 660 0
DWIDTH 11 0
BBX 8 13 1 0
BITMAP
FF
ED
C0
80
C0
FE
EC
03
03
03
C3
EF
7E
ENDCHAR
STARTCHAR 0036
ENCODING 54
SWIDTH 660 0
DWIDTH 11 0
BBX 8 13 2 0
BITMAP
3E
3C
60
C0
C0
FC
6B
C3
C3
C3
63
3E
3C
ENDCHAR
STARTCHAR 0037
ENCODING 55
SWIDTH 660 0
DWIDTH 11 0
BBX 8 13 1 0
BITMAP
FF
FF
03
02
06
0C
08
18
18
18
18
18
18
ENDCHAR
STARTCHAR 0038
ENCODING 56
SWIDTH 660 0
DWIDTH 11 0
BBX 8 13 2 0
BITMAP
7E
7C
C3
C3
C3
7E
7C
C3
83
C3
C3
F7
7E
ENDCHAR
STARTCHAR 0039
ENCODING 57
SWIDTH 660 0
DWIDTH 11 0
BBX 8 13 2 0
BITMAP
3E
3E
C3
C3
C3
C3
FD
3F
03
03
03
3F
3E
ENDCHAR
STARTCHAR 003A
ENCODING 58
SWIDTH 720 0
DWIDTH 12 0
BBX 4 8 4 2
BITMAP
F0
70
F0
00
00
F0
70
F0
ENDCHAR
STARTCHAR 003B
ENCODING 59
SWIDTH 720 0
DWIDTH 12 0
BBX 4 9 4 0
BITMAP
F0
E0
F0
00
F0
E0
30
C0
C0
ENDCHAR
STARTCHAR 003C
ENCODING 60
SWIDTH 660 0
DWIDTH 11 0
BBX 7 11 2 0
BITMAP
06
08
18
30
C0
C0
30
38
18
06
06
ENDCHAR
STARTCHAR 003D
ENCODING 61
SWIDTH 720 0
DWIDTH 12 0
BBX 8 5 2 3
BITMAP
FF
EF
00
FF
FF
ENDCHAR
STARTCHAR 003E
ENCODING 62
SWIDTH 660 0
DWIDTH 11 0
BBX 7 11 2 0
BITMAP
C0
B0
30
18
06
06
18
08
30
C0
C0
ENDCHAR
STARTCHAR 003F
ENCODING 63
SWIDTH 720 0
DWIDTH 12 0
BBX 8 13 2 0
BITMAP
3C
3C
C3
C3
03
0C
0C
18
00
00
00
18
18
ENDCHAR
STARTCHAR 0040
ENCODING 64
SWIDTH 660 0
DWIDTH 11 0
BBX 8 13 1 0
BITMAP
3C
3C
63
43
C3
5B
DB
DB
DB
DC
60
77
3F
ENDCHAR
STARTCHAR 0041
ENCODING 65
SWIDTH 600 0
DWIDTH 10 0
BBX 8 13 1 0
BITMAP
3E
3E
63
C3
C3
C3
FF
FF
C3
41
C3
C3
C3
ENDCHAR
STARTCHAR 0042
ENCODING 66
SWIDTH 600 0
DWIDTH 10 0
BBX 8 13 1 0
BITMAP
FE
FE
C3
C3
C3
FE
EC
C3
C3
C3
C3
FE
FE
ENDCHAR
STARTCHAR 0043
ENCODING 67
SWIDTH 720 0
DWIDTH 12 0
BBX 8 13 2 0
BITMAP
3E
3E
63
63
C0
C0
C0
C0
C0
C0
63
6F
3E
ENDCHAR
STARTCHAR 0044
ENCODING 68
SWIDTH 600 0
DWIDTH 10 0
BBX 8 13 1 0
BITMAP
FE
FC
C3
C3
C3
C3
C1
C3
C3
C3
C3
AF
FE
ENDCHAR
STARTCHAR 0045
ENCODING 69
SWIDTH 660 0
DWIDTH 11 0
BBX 8 13 1 0
BITMAP
FF
EF
C0
C0
C0
FE
FE
C0
C0
C0
C0
FF
FF
ENDCHAR
STARTCHAR 0046
ENCODING 70
SWIDTH 660 0
DWIDTH 11 0
BBX 8 13 1 0
BITMAP
FF
FD
C0
C0
C0
FC
FC
C0
C0
C0
C0
C0
C0
ENDCHAR
STARTCHAR 0047
ENCODING 71
SWIDTH 720 0
DWIDTH 12 0
BBX 8 13 2 0
BITMAP
3E
3C
C0
C0
C0
C0
C0
DF
DD
C3
C3
FF
7C
ENDCHAR
STARTCHAR 0048
ENCODING 72
SWIDTH 600 0
DWIDTH 10 0
BBX 8 13 1 0
BITMAP
C3
C3
C3
C1
C3
FF
FF
C3
C3
C3
C3
C3
C3
ENDCHAR
STARTCHAR 0049
ENCODING 73
SWIDTH 720 0
DWIDTH 12 0
BBX 4 13 4 0
BITMAP
F0
F0
60
60
60
60
20
60
60
60
60
F0
F0
ENDCHAR
STARTCHAR 004A
ENCODING 74
SWIDTH 660 0
DWIDTH 11 0
BBX 8 13 1 0
BITMAP
0F
0F
06
02
06
06
02
06
C6
C2
C6
EE
7C
ENDCHAR
STARTCHAR 004B
ENCODING 75
SWIDTH 660 0
DWIDTH 11 0
BBX 8 13 1 0
BITMAP
C3
C3
C6
DE
D8
E0
F0
58
CC
C6
C6
C3
C1
ENDCHAR
STARTCHAR 004C
ENCODING 76
SWIDTH 720 0
DWIDTH 12 0
BBX 8 13 2 0
BITMAP
C0
C0
C0
C0
C0
C0
80
C0
C0
C0
C0
FF
FF
ENDCHAR
STARTCHAR 004D
ENCODING 77
SWIDTH 660 0
DWIDTH 11 0
BBX 9 13 1 0
BITMAP
C180
C180
E380
E380
F780
F780
FF80
CD80
C180
8100
C180
C180
C180
ENDCHAR
STARTCHAR 004E
ENCODING 78
SWIDTH 660 0
DWIDTH 11 0
BBX 9 13 1 0
BITMAP
C380
C380
E380
E100
FB80
DB80
8D00
CF80
C780
C700
C300
C300
C300
ENDCHAR
STARTCHAR 004F
ENCODING 79
SWIDTH 660 0
DWIDTH 11 0
BBX 8 13 1 0
BITMAP
3C
3C
63
C3
C3
C3
81
C3
C3
C3
E3
6F
3C
ENDCHAR
STARTCHAR 0050
ENCODING 80
SWIDTH 600 0
DWIDTH 10 0
BBX 8 13 1 0
BITMAP
FE
EB
C3
C3
C3
C3
FE
FC
C0
40
C0
C0
C0
ENDCHAR
STARTCHAR 0051
ENCODING 81
SWIDTH 600 0
DWIDTH 10 0
BBX 8 13 1 0
BITMAP
3E
3E
C3
C3
C3
C3
C3
C3
DB
DB
CF
EF
3F
ENDCHAR
STARTCHAR 0052
ENCODING 82
SWIDTH 600 0
DWIDTH 10 0
BBX 8 13 1 0
BITMAP
FE
EE
C3
C1
C3
C3
FC
EC
C6
C4
C3
C3
C3
ENDCHAR
STARTCHAR 0053
ENCODING 83
SWIDTH 720 0
DWIDTH 12 0
BBX 8 13 2 0
BITMAP
3C
3E
63
43
C0
70
1E
06
C3
C3
43
6F
3C
ENDCHAR
STARTCHAR 0054
ENCODING 84
SWIDTH 720 0
DWIDTH 12 0
BBX 8 13 2 0
BITMAP
FF
FF
18
18
18
18
08
18
18
18
18
18
18
ENDCHAR
STARTCHAR 0055
ENCODING 85
SWIDTH 600 0
DWIDTH 10 0
BBX 8 13 1 0
BITMAP
C3
C3
C3
C3
C3
C3
C1
C3
C3
C3
C3
7C
3C
ENDCHAR
STARTCHAR 0056
ENCODING 86
SWIDTH 600 0
DWIDTH 10 0
BBX 8 13 1 0
BITMAP
C3
C3
C3
81
C3
C1
C3
C3
C3
66
3C
3C
18
ENDCHAR
STARTCHAR 0057
ENCODING 87
SWIDTH 600 0
DWIDTH 10 0
BBX 8 13 1 0
BITMAP
C3
C1
C3
C9
DB
DB
CB
DB
99
FB
FF
66
66
ENDCHAR
STARTCHAR 0058
ENCODING 88
SWIDTH 600 0
DWIDTH 10 0
BBX 8 13 1 0
BITMAP
C3
C3
66
34
34
08
08
1C
34
34
66
66
C3
ENDCHAR
STARTCHAR 0059
ENCODING 89
SWIDTH 720 0
DWIDTH 12 0
BBX 8 13 2 0
BITMAP
83
83
C6
6C
6C
3C
30
30
30
10
30
30
30
ENDCHAR
STARTCHAR 005A
ENCODING 90
SWIDTH 660 0
DWIDTH 11 0
BBX 8 13 1 0
BITMAP
7F
7B
03
06
06
0C
18
18
30
30
60
FF
FF
ENDCHAR
STARTCHAR 005B
ENCODING 91
SWIDTH 660 0
DWIDTH 11 0
BBX 5 13 3 0
BITMAP
F8
E8
C0
40
C0
C0
C0
C0
80
C0
C0
F8
F8
ENDCHAR
STARTCHAR 005C
ENCODING 92
SWIDTH 600 0
DWIDTH 10 0
BBX 8 13 1 0
BITMAP
C0
C0
60
30
30
18
0C
0C
04
07
03
03
03
ENDCHAR
STARTCHAR 005D
ENCODING 93
SWIDTH 660 0
DWIDTH 11 0
BBX 5 13 3 0
BITMAP
F8
F8
18
08
18
18
18
18
08
18
18
F8
F8
ENDCHAR
STARTCHAR 005E
ENCODING 94
SWIDTH 660 0
DWIDTH 11 0
BBX 8 4 2 9
BITMAP
18
7C
E6
C3
ENDCHAR
STARTCHAR 005F
ENCODING 95
SWIDTH 720 0
DWIDTH 12 0
BBX 8 2 2 -2
BITMAP
FF
FF
ENDCHAR
STARTCHAR 0060
ENCODING 96
SWIDTH 660 0
DWIDTH 11 0
BBX 3 2 4 14
BITMAP
E0
E0
ENDCHAR
STARTCHAR 0061
ENCODING 97
SWIDTH 600 0
DWIDTH 10 0
BBX 8 13 1 0
BITMAP
3E
3E
63
C3
C3
C3
FF
FF
C3
41
C3
C3
C3
ENDCHAR
STARTCHAR 0062
ENCODING 98
SWIDTH 600 0
DWIDTH 10 0
BBX 8 13 1 0
BITMAP
FE
FE
C3
C3
C3
FE
EC
C3
C3
C3
C3
FE
FE
ENDCHAR
STARTCHAR 0063
ENCODING 99
SWIDTH 720 0
DWIDTH 12 0
BBX 8 13 2 0
BITMAP
3E
3E
63
63
C0
C0
C0
C0
C0
C0
63
6F
3E
ENDCHAR
STARTCHAR 0064
ENCODING 100
SWIDTH 600 0
DWIDTH 10 0
BBX 8 13 1 0
BITMAP
FE
FC
C3
C3
C3
C3
C1
C3
C3
C3
C3
AF
FE
ENDCHAR
STARTCHAR 0065
ENCODING 101
SWIDTH 660 0
DWIDTH 11 0
BBX 8 13 1 0
BITMAP
FF
EF
C0
C0
C0
FE
FE
C0
C0
C0
C0
FF
FF
ENDCHAR
STARTCHAR 0066
ENCODING 102
SWIDTH 660 0
DWIDTH 11 0
BBX 8 13 1 0
BITMAP
FF
FD
C0
C0
C0
FC
FC
C0
C0
C0
C0
C0
C0
ENDCHAR
STARTCHAR 0067
ENCODING 103
SWIDTH 720 0
DWIDTH 12 0
BBX 8 13 2 0
BITMAP
3E
3C
C0
C0
C0
C0
C0
DF
DD
C3
C3
FF
7C
ENDCHAR
STARTCHAR 0068
ENCODING 104
SWIDTH 600 0
DWIDTH 10 0
BBX 8 13 1 0
BITMAP
C3
C3
C3
C1
C3
FF
FF
C3
C3
C3
C3
C3
C3
ENDCHAR
STARTCHAR 0069
ENCODING 105
SWIDTH 720 0
DWIDTH 12 0
BBX 4 13 4 0
BITMAP
F0
F0
60
60
60
60
20
60
60
60
60
F0
F0
ENDCHAR
STARTCHAR 006A
ENCODING 106
SWIDTH 660 0
DWIDTH 11 0
BBX 8 13 1 0
BITMAP
0F
0F
06
02
06
06
02
06
C6
C2
C6
EE
7C
ENDCHAR
STARTCHAR 006B
ENCODING 107
SWIDTH 660 0
DWIDTH 11 0
BBX 8 13 1 0
BITMAP
C3
C3
C6
DE
D8
E0
F0
58
CC
C6
C6
C3
C1
ENDCHAR
STARTCHAR 006C
ENCODING 108
SWIDTH 720 0
DWIDTH 12 0
BBX 8 13 2 0
BITMAP
C0
C0
C0
C0
C0
C0
80
C0
C0
C0
C0
FF
FF
ENDCHAR
STARTCHAR 006D
ENCODING 109
SWIDTH 660 0
DWIDTH 11 0
BBX 9 13 1 0
BITMAP
C180
C180
E380
E380
F780
F780
FF80
CD80
C180
8100
C180
C180
C180
ENDCHAR
STARTCHAR 006E
ENCODING 110
SWIDTH 660 0
DWIDTH 11 0
BBX 9 13 1 0
BITMAP
C380
C380
E380
E100
FB80
DB80
8D00
CF80
C780
C700
C300
C300
C300
ENDCHAR
STARTCHAR 006F
ENCODING 111
SWIDTH 660 0
DWIDTH 11 0
BBX 8 13 1 0
BITMAP
3C
3C
63
C3
C3
C3
81
C3
C3
C3
E3
6F
3C
ENDCHAR
STARTCHAR 0070
ENCODING 112
SWIDTH 600 0
DWIDTH 10 0
BBX 8 13 1 0
BITMAP
FE
EB
C3
C3
C3
C3
FE
FC
C0
40
C0
C0
C0
ENDCHAR
STARTCHAR 0071
ENCODING 113
SWIDTH 600 0
DWIDTH 10 0
BBX 8 13 1 0
BITMAP
3E
3E
C3
C3
C3
C3
C3
C3
DB
DB
CF
EF
3F
ENDCHAR
STARTCHAR 0072
ENCODING 114
SWIDTH 600 0
DWIDTH 10 0
BBX 8 13 1 0
BITMAP
FE
EE
C3
C1
C3
C3
FC
EC
C6
C4
C3
C3
C3
ENDCHAR
STARTCHAR 0073
ENCODING 115
SWIDTH 720 0
DWIDTH 12 0
BBX 8 13 2 0
BITMAP
3C
3E
63
43
C0
70
1E
06
C3
C3
43
6F
3C
ENDCHAR
STARTCHAR 0074
ENCODING 116
SWIDTH 720 0
DWIDTH 12 0
BBX 8 13 2 0
BITMAP
FF
FF
18
18
18
18
08
18
18
18
18
18
18
ENDCHAR
STARTCHAR 0075
ENCODING 117
SWIDTH 600 0
DWIDTH 10 0
BBX 8 13 1 0
BITMAP
C3
C3
C3
C3
C3
C3
C1
C3
C3
C3
C3
7C
3C
ENDCHAR
STARTCHAR 0076
ENCODING 118
SWIDTH 600 0
DWIDTH 10 0
BBX 8 13 1 0
BITMAP
C3
C3
C3
81
C3
C1
C3
C3
C3
66
3C
3C
18
ENDCHAR
STARTCHAR 0077
ENCODING 119
SWIDTH 600 0
DWIDTH 10 0
BBX 8 13 1 0
BITMAP
C3
C1
C3
C9
DB
DB
CB
DB
99
FB
FF
66
66
ENDCHAR
STARTCHAR 0078
ENCODING 120
SWIDTH 600 0
DWIDTH 10 0
BBX 8 13 1 0
BITMAP
C3
C3
66
34
34
08
08
1C
34
34
66
66
C3
ENDCHAR
STARTCHAR 0079
ENCODING 121
SWIDTH 720 0
DWIDTH 12 0
BBX 8 13 2 0
BITMAP
83
83
C6
6C
6C
3C
30
30
30
10
30
30
30
ENDCHAR
STARTCHAR 007A
ENCODING 122
SWIDTH 660 0
DWIDTH 11 0
BBX 8 13 1 0
BITMAP
7F
7B
03
06
06
0C
18
18
30
30
60
FF
FF
ENDCHAR
STARTCHAR 007B
ENCODING 123
SWIDTH 660 0
DWIDTH 11 0
BBX 7 16 2 -2
BITMAP
1E
3E
30
30
20
60
E0
C0
C0
20
60
20
20
30
3C
1E
ENDCHAR
STARTCHAR 007C
ENCODING 124
SWIDTH 720 0
DWIDTH 12 0
BBX 2 16 5 -1
BITMAP
C0
C0
C0
C0
C0
C0
80
C0
C0
C0
C0
C0
C0
C0
C0
C0
ENDCHAR
STARTCHAR 007D
ENCODING 125
SWIDTH 660 0
DWIDTH 11 0
BBX 7 17 2 -2
BITMAP
E0
F0
18
18
08
18
06
06
06
06
18
18
18
18
18
F0
E0
ENDCHAR
STARTCHAR 007E
ENCODING 126
SWIDTH 720 0
DWIDTH 12 0
BBX 8 3 2 4
BITMAP
33
FF
CC
ENDCHAR
STARTCHAR 00A0
ENCODING 160
SWIDTH 660 0
DWIDTH 11 0
BBX 0 0 0 0
BITMAP
ENDCHAR
STARTCHAR 00A1
ENCODING 161
SWIDTH 720 0
DWIDTH 12 0
BBX 2 13 5 -2
BITMAP
C0
C0
00
00
00
C0
C0
C0
C0
C0
C0
C0
C0
ENDCHAR
STARTCHAR 00A2
ENCODING 162
SWIDTH 720 0
DWIDTH 12 0
BBX 8 17 2 -2
BITMAP
18
18
3E
3E
7B
7B
D8
D8
D8
D8
58
D8
7B
7F
3E
18
18
ENDCHAR
STARTCHAR 00A3
ENCODING 163
SWIDTH 660 0
DWIDTH 11 0
BBX 9 13 1 0
BITMAP
0E00
1B00
1900
3000
3000
FC00
FC00
3000
3000
3000
3000
FB80
FF80
ENDCHAR
STARTCHAR 00A5
ENCODING 165
SWIDTH 600 0
DWIDTH 10 0
BBX 8 13 1 0
BITMAP
C3
E3
63
66
36
3C
7F
FF
18
18
FF
FF
18
ENDCHAR
STARTCHAR 00A6
ENCODING 166
SWIDTH 720 0
DWIDTH 12 0
BBX 2 16 5 -1
BITMAP
C0
C0
C0
C0
C0
C0
C0
00
00
00
C0
C0
C0
C0
C0
C0
ENDCHAR
STARTCHAR 00A8
ENCODING 168
SWIDTH 660 0
DWIDTH 11 0
BBX 5 2 3 14
BITMAP
D8
D8
ENDCHAR
STARTCHAR 00A9
ENCODING 169
SWIDTH 720 0
DWIDTH 12 0
BBX 10 13 1 0
BITMAP
3F00
3F00
6180
4180
CCC0
DCC0
D8C0
D8C0
CCC0
C080
E180
6F80
3F00
ENDCHAR
STARTCHAR 00AA
ENCODING 170
SWIDTH 660 0
DWIDTH 11 0
BBX 8 10 1 3
BITMAP
3E
3E
63
63
C3
C3
FF
C3
41
C3
ENDCHAR
STARTCHAR 00AB
ENCODING 171
SWIDTH 660 0
DWIDTH 11 0
BBX 9 8 1 1
BITMAP
1980
1980
3200
2200
CC00
CC00
3200
1980
ENDCHAR
STARTCHAR 00AE
ENCODING 174
SWIDTH 720 0
DWIDTH 12 0
BBX 10 13 1 0
BITMAP
2D00
3F00
4180
DCC0
D2C0
D2C0
DC80
D4C0
D2C0
D280
C180
7D80
3F00
ENDCHAR
STARTCHAR 00AF
ENCODING 175
SWIDTH 660 0
DWIDTH 11 0
BBX 7 2 2 14
BITMAP
EE
FE
ENDCHAR
STARTCHAR 00B0
ENCODING 176
SWIDTH 300 0
DWIDTH 5 0
BBX 4 5 1 8
BITMAP
E0
A0
90
A0
E0
ENDCHAR
STARTCHAR 00B1
ENCODING 177
SWIDTH 720 0
DWIDTH 12 0
BBX 8 11 2 -1
BITMAP
18
18
FF
FF
18
18
18
00
00
FF
FF
ENDCHAR
STARTCHAR 00B2
ENCODING 178
SWIDTH 660 0
DWIDTH 11 0
BBX 5 7 3 6
BITMAP
70
48
C8
30
40
C0
F8
ENDCHAR
STARTCHAR 00B3
ENCODING 179
SWIDTH 420 0
DWIDTH 7 0
BBX 5 7 1 6
BITMAP
70
98
10
70
10
90
70
ENDCHAR
STARTCHAR 00B4
ENCODING 180
SWIDTH 660 0
DWIDTH 11 0
BBX 3 2 4 14
BITMAP
E0
E0
ENDCHAR
STARTCHAR 00B7
ENCODING 183
SWIDTH 720 0
DWIDTH 12 0
BBX 4 3 4 4
BITMAP
F0
70
F0
ENDCHAR
STARTCHAR 00B8
ENCODING 184
SWIDTH 720 0
DWIDTH 12 0
BBX 4 5 4 -3
BITMAP
60
60
30
70
F0
ENDCHAR
STARTCHAR 00B9
ENCODING 185
SWIDTH 660 0
DWIDTH 11 0
BBX 3 7 4 6
BITMAP
40
C0
40
40
40
40
E0
ENDCHAR
STARTCHAR 00BA
ENCODING 186
SWIDTH 660 0
DWIDTH 11 0
BBX 8 10 1 3
BITMAP
3C
6E
62
C3
C3
C3
C2
62
7C
3C
ENDCHAR
STARTCHAR 00BB
ENCODING 187
SWIDTH 660 0
DWIDTH 11 0
BBX 8 8 1 1
BITMAP
CC
CC
36
36
1B
3F
36
CC
ENDCHAR
STARTCHAR 00BC
ENCODING 188
SWIDTH 660 0
DWIDTH 11 0
BBX 10 13 1 0
BITMAP
4000
C300
4200
4400
4400
4800
F980
1280
1680
2480
67C0
6080
0080
ENDCHAR
STARTCHAR 00BD
ENCODING 189
SWIDTH 720 0
DWIDTH 12 0
BBX 11 13 0 0
BITMAP
6000
6180
6180
6200
6200
6400
E5C0
0A20
0AA0
1180
3200
3200
03E0
ENDCHAR
STARTCHAR 00BE
ENCODING 190
SWIDTH 720 0
DWIDTH 12 0
BBX 10 13 1 0
BITMAP
F000
9180
7100
7300
9600
B600
FDC0
0980
0A80
1280
33C0
3080
0080
ENDCHAR
STARTCHAR 00BF
ENCODING 191
SWIDTH 720 0
DWIDTH 12 0
BBX 8 14 2 -2
BITMAP
18
18
00
00
00
18
18
30
30
C0
C3
C3
3C
3C
ENDCHAR
STARTCHAR 00C0
ENCODING 192
SWIDTH 600 0
DWIDTH 10 0
BBX 8 16 1 0
BITMAP
1C
1C
00
3E
3E
63
C3
C3
C3
FF
FF
C3
41
C3
C3
C3
ENDCHAR
STARTCHAR 00C1
ENCODING 193
SWIDTH 600 0
DWIDTH 10 0
BBX 8 16 1 0
BITMAP
1C
18
00
3E
3E
63
C3
C3
C3
FF
FF
C3
41
C3
C3
C3
ENDCHAR
STARTCHAR 00C2
ENCODING 194
SWIDTH 600 0
DWIDTH 10 0
BBX 8 16 1 0
BITMAP
08
34
00
3E
3E
63
C3
C3
C3
FF
FF
C3
41
C3
C3
C3
ENDCHAR
STARTCHAR 00C3
ENCODING 195
SWIDTH 600 0
DWIDTH 10 0
BBX 8 16 1 0
BITMAP
12
3E
24
3E
3E
63
C3
C3
C3
FF
FF
C3
41
C3
C3
C3
ENDCHAR
STARTCHAR 00C4
ENCODING 196
SWIDTH 600 0
DWIDTH 10 0
BBX 8 16 1 0
BITMAP
36
36
00
3E
3E
63
C3
C3
C3
FD
FF
C3
41
C3
C3
C3
ENDCHAR
STARTCHAR 00C5
ENCODING 197
SWIDTH 600 0
DWIDTH 10 0
BBX 8 16 1 0
BITMAP
08
1E
1C
3E
3E
63
C1
C1
C1
FF
FF
C1
41
C1
C1
C1
ENDCHAR
STARTCHAR 00C6
ENCODING 198
SWIDTH 780 0
DWIDTH 13 0
BBX 11 13 1 0
BITMAP
3FE0
3FE0
6600
C600
C600
C600
FFC0
FFC0
C600
4600
C600
C7E0
C7E0
ENDCHAR
STARTCHAR 00C7
ENCODING 199
SWIDTH 720 0
DWIDTH 12 0
BBX 8 16 2 -3
BITMAP
3E
6F
63
C0
40
C0
40
C0
C0
C0
63
6F
3C
0C
14
3C
ENDCHAR
STARTCHAR 00C8
ENCODING 200
SWIDTH 660 0
DWIDTH 11 0
BBX 8 16 1 0
BITMAP
1C
1C
00
FF
FF
C0
C0
C0
FE
FE
C0
C0
C0
C0
FF
FF
ENDCHAR
STARTCHAR 00C9
ENCODING 201
SWIDTH 660 0
DWIDTH 11 0
BBX 8 16 1 0
BITMAP
1C
10
00
FF
EF
C0
C0
C0
FE
FE
C0
C0
C0
C0
FF
FF
ENDCHAR
STARTCHAR 00CA
ENCODING 202
SWIDTH 660 0
DWIDTH 11 0
BBX 8 16 1 0
BITMAP
3C
34
00
FF
FF
C0
C0
C0
FE
EE
C0
C0
C0
C0
FF
FF
ENDCHAR
STARTCHAR 00CB
ENCODING 203
SWIDTH 660 0
DWIDTH 11 0
BBX 8 15 1 0
BITMAP
36
00
7F
FF
C0
C0
C0
FE
FE
C0
40
C0
C0
FF
FF
ENDCHAR
STARTCHAR 00CC
ENCODING 204
SWIDTH 660 0
DWIDTH 11 0
BBX 5 16 3 0
BITMAP
70
70
00
F8
F8
30
30
30
30
10
30
30
30
30
F8
F8
ENDCHAR
STARTCHAR 00CD
ENCODING 205
SWIDTH 720 0
DWIDTH 12 0
BBX 4 16 4 0
BITMAP
60
60
00
F0
F0
60
60
60
60
20
60
60
60
60
F0
F0
ENDCHAR
STARTCHAR 00CE
ENCODING 206
SWIDTH 720 0
DWIDTH 12 0
BBX 4 16 4 0
BITMAP
F0
F0
00
F0
F0
60
60
60
60
20
60
60
60
60
F0
F0
ENDCHAR
STARTCHAR 00CF
ENCODING 207
SWIDTH 660 0
DWIDTH 11 0
BBX 5 16 3 0
BITMAP
D8
D8
00
F8
F8
30
20
30
30
20
30
30
20
30
F8
F8
ENDCHAR
STARTCHAR 00D0
ENCODING 208
SWIDTH 660 0
DWIDTH 11 0
BBX 9 13 1 0
BITMAP
7E00
7E00
6180
6080
6180
FD80
FC80
6180
6180
6180
6180
5780
7E00
ENDCHAR
STARTCHAR 00D1
ENCODING 209
SWIDTH 660 0
DWIDTH 11 0
BBX 9 16 1 0
BITMAP
1200
7E00
4400
C380
C380
E380
E100
FB80
DB80
8D00
CF80
C780
C700
C300
C300
C300
ENDCHAR
STARTCHAR 00D2
ENCODING 210
SWIDTH 660 0
DWIDTH 11 0
BBX 8 16 1 0
BITMAP
1C
1C
00
3C
3C
63
C3
C3
C3
81
C3
C3
C3
E3
6F
3C
ENDCHAR
STARTCHAR 00D3
ENCODING 211
SWIDTH 660 0
DWIDTH 11 0
BBX 8 16 1 0
BITMAP
1C
10
00
3C
3C
63
C3
C3
C3
C1
C3
C3
C3
E3
6F
3C
ENDCHAR
STARTCHAR 00D4
ENCODING 212
SWIDTH 660 0
DWIDTH 11 0
BBX 8 16 1 0
BITMAP
3C
24
00
3C
3C
63
C3
C3
C3
C1
C3
C3
C3
E3
6F
3C
ENDCHAR
STARTCHAR 00D5
ENCODING 213
SWIDTH 660 0
DWIDTH 11 0
BBX 8 16 1 0
BITMAP
12
7E
64
3C
3C
63
C3
C3
C3
81
C3
C3
C3
E3
6F
3C
ENDCHAR
STARTCHAR 00D6
ENCODING 214
SWIDTH 660 0
DWIDTH 11 0
BBX 8 16 1 0
BITMAP
36
36
00
3E
3E
63
C1
C3
C3
41
C3
C3
C1
63
6F
3E
ENDCHAR
STARTCHAR 00D7
ENCODING 215
SWIDTH 660 0
DWIDTH 11 0
BBX 6 6 3 3
BITMAP
CC
FC
78
78
DC
8C
ENDCHAR
STARTCHAR 00D8
ENCODING 216
SWIDTH 720 0
DWIDTH 12 0
BBX 9 13 2 0
BITMAP
3F80
6F80
4300
CF00
CF00
DB00
D100
F300
F300
F300
C300
FE00
FC00
ENDCHAR
STARTCHAR 00D9
ENCODING 217
SWIDTH 600 0
DWIDTH 10 0
BBX 8 16 1 0
BITMAP
1C
1C
00
C3
C3
C3
C3
C3
C3
C1
C3
C3
C3
C3
7C
3C
ENDCHAR
STARTCHAR 00DA
ENCODING 218
SWIDTH 600 0
DWIDTH 10 0
BBX 8 16 1 0
BITMAP
1C
14
00
C3
C1
C3
C1
C3
C3
C1
C3
C3
C3
C3
7E
3C
ENDCHAR
STARTCHAR 00DB
ENCODING 219
SWIDTH 600 0
DWIDTH 10 0
BBX 8 16 1 0
BITMAP
3C
3C
00
C3
C3
C3
C3
C3
C3
C1
C3
C3
C3
C3
3C
2C
ENDCHAR
STARTCHAR 00DC
ENCODING 220
SWIDTH 600 0
DWIDTH 10 0
BBX 8 16 1 0
BITMAP
36
36
00
C3
C1
C3
C1
C3
C3
41
C3
C3
C3
43
3E
3E
ENDCHAR
STARTCHAR 00DD
ENCODING 221
SWIDTH 720 0
DWIDTH 12 0
BBX 8 16 2 0
BITMAP
38
38
00
83
83
C6
6C
6C
3C
30
30
30
10
30
30
30
ENDCHAR
STARTCHAR 00DE
ENCODING 222
SWIDTH 600 0
DWIDTH 10 0
BBX 8 13 1 0
BITMAP
C0
C0
FE
EF
C3
C3
41
C3
FE
EC
C0
C0
C0
ENDCHAR
STARTCHAR 00DF
ENCODING 223
SWIDTH 1380 0
DWIDTH 23 0
BBX 19 13 2 0
BITMAP
3C0780
3E07C0
630C60
430860
C01800
700E00
1E03C0
0600C0
C31860
C31860
430860
6F0DE0
3C0780
ENDCHAR
STARTCHAR 00E0
ENCODING 224
SWIDTH 600 0
DWIDTH 10 0
BBX 8 16 1 0
BITMAP
1C
1C
00
3E
3E
63
C3
C3
C3
FF
FF
C3
41
C3
C3
C3
ENDCHAR
STARTCHAR 00E1
ENCODING 225
SWIDTH 600 0
DWIDTH 10 0
BBX 8 16 1 0
BITMAP
1C
18
00
3E
3E
63
C3
C3
C3
FF
FF
C3
41
C3
C3
C3
ENDCHAR
STARTCHAR 00E2
ENCODING 226
SWIDTH 600 0
DWIDTH 10 0
BBX 8 16 1 0
BITMAP
08
34
00
3E
3E
63
C3
C3
C3
FF
FF
C3
41
C3
C3
C3
ENDCHAR
STARTCHAR 00E3
ENCODING 227
SWIDTH 600 0
DWIDTH 10 0
BBX 8 16 1 0
BITMAP
12
3E
24
3E
3E
63
C3
C3
C3
FF
FF
C3
41
C3
C3
C3
ENDCHAR
STARTCHAR 00E4
ENCODING 228
SWIDTH 600 0
DWIDTH 10 0
BBX 8 16 1 0
BITMAP
36
36
00
3E
3E
63
C3
C3
C3
FD
FF
C3
41
C3
C3
C3
ENDCHAR
STARTCHAR 00E5
ENCODING 229
SWIDTH 600 0
DWIDTH 10 0
BBX 8 16 1 0
BITMAP
08
1E
1C
3E
3E
63
C1
C1
C1
FF
FF
C1
41
C1
C1
C1
ENDCHAR
STARTCHAR 00E6
ENCODING 230
SWIDTH 780 0
DWIDTH 13 0
BBX 11 13 1 0
BITMAP
3FE0
3FE0
6600
C600
C600
C600
FFC0
FFC0
C600
4600
C600
C7E0
C7E0
ENDCHAR
STARTCHAR 00E7
ENCODING 231
SWIDTH 720 0
DWIDTH 12 0
BBX 8 16 2 -3
BITMAP
3E
6F
63
C0
40
C0
40
C0
C0
C0
63
6F
3C
0C
14
3C
ENDCHAR
STARTCHAR 00E8
ENCODING 232
SWIDTH 660 0
DWIDTH 11 0
BBX 8 16 1 0
BITMAP
1C
1C
00
FF
FF
C0
C0
C0
FE
FE
C0
C0
C0
C0
FF
FF
ENDCHAR
STARTCHAR 00E9
ENCODING 233
SWIDTH 660 0
DWIDTH 11 0
BBX 8 16 1 0
BITMAP
1C
10
00
FF
EF
C0
C0
C0
FE
FE
C0
C0
C0
C0
FF
FF
ENDCHAR
STARTCHAR 00EA
ENCODING 234
SWIDTH 660 0
DWIDTH 11 0
BBX 8 16 1 0
BITMAP
3C
34
00
FF
FF
C0
C0
C0
FE
EE
C0
C0
C0
C0
FF
FF
ENDCHAR
STARTCHAR 00EB
ENCODING 235
SWIDTH 660 0
DWIDTH 11 0
BBX 8 15 1 0
BITMAP
36
00
7F
FF
C0
C0
C0
FE
FE
C0
40
C0
C0
FF
FF
ENDCHAR
STARTCHAR 00EC
ENCODING 236
SWIDTH 660 0
DWIDTH 11 0
BBX 5 16 3 0
BITMAP
70
70
00
F8
F8
30
30
30
30
10
30
30
30
30
F8
F8
ENDCHAR
STARTCHAR 00ED
ENCODING 237
SWIDTH 720 0
DWIDTH 12 0
BBX 4 16 4 0
BITMAP
60
60
00
F0
F0
60
60
60
60
20
60
60
60
60
F0
F0
ENDCHAR
STARTCHAR 00EE
ENCODING 238
SWIDTH 720 0
DWIDTH 12 0
BBX 4 16 4 0
BITMAP
F0
F0
00
F0
F0
60
60
60
60
20
60
60
60
60
F0
F0
ENDCHAR
STARTCHAR 00EF
ENCODING 239
SWIDTH 660 0
DWIDTH 11 0
BBX 5 16 3 0
BITMAP
D8
D8
00
F8
F8
30
20
30
30
20
30
30
20
30
F8
F8
ENDCHAR
STARTCHAR 00F0
ENCODING 240
SWIDTH 660 0
DWIDTH 11 0
BBX 9 13 1 0
BITMAP
7E00
7E00
6180
6080
6180
FD80
FC80
6180
6180
6180
6180
5780
7E00
ENDCHAR
STARTCHAR 00F1
ENCODING 241
SWIDTH 660 0
DWIDTH 11 0
BBX 9 16 1 0
BITMAP
1200
7E00
4400
C380
C380
E380
E100
FB80
DB80
8D00
CF80
C780
C700
C300
C300
C300
ENDCHAR
STARTCHAR 00F2
ENCODING 242
SWIDTH 660 0
DWIDTH 11 0
BBX 8 16 1 0
BITMAP
1C
1C
00
3C
3C
63
C3
C3
C3
81
C3
C3
C3
E3
6F
3C
ENDCHAR
STARTCHAR 00F3
ENCODING 243
SWIDTH 660 0
DWIDTH 11 0
BBX 8 16 1 0
BITMAP
1C
10
00
3C
3C
63
C3
C3
C3
C1
C3
C3
C3
E3
6F
3C
ENDCHAR
STARTCHAR 00F4
ENCODING 244
SWIDTH 660 0
DWIDTH 11 0
BBX 8 16 1 0
BITMAP
3C
24
00
3C
3C
63
C3
C3
C3
C1
C3
C3
C3
E3
6F
3C
ENDCHAR
STARTCHAR 00F5
ENCODING 245
SWIDTH 660 0
DWIDTH 11 0
BBX 8 16 1 0
BITMAP
12
7E
64
3C
3C
63
C3
C3
C3
81
C3
C3
C3
E3
6F
3C
ENDCHAR
STARTCHAR 00F6
ENCODING 246
SWIDTH 660 0
DWIDTH 11 0
BBX 8 16 1 0
BITMAP
36
36
00
3E
3E
63
C1
C3
C3
41
C3
C3
C1
63
6F
3E
ENDCHAR
STARTCHAR 00F7
ENCODING 247
SWIDTH 720 0
DWIDTH 12 0
BBX 8 13 2 0
BITMAP
3C
1C
3C
00
00
FF
FF
00
00
00
3C
1C
3C
ENDCHAR
STARTCHAR 00F8
ENCODING 248
SWIDTH 720 0
DWIDTH 12 0
BBX 9 13 2 0
BITMAP
3F80
6F80
4300
CF00
CF00
DB00
D100
F300
F300
F300
C300
FE00
FC00
ENDCHAR
STARTCHAR 00F9
ENCODING 249
SWIDTH 600 0
DWIDTH 10 0
BBX 8 16 1 0
BITMAP
1C
1C
00
C3
C3
C3
C3
C3
C3
C1
C3
C3
C3
C3
7C
3C
ENDCHAR
STARTCHAR 00FA
ENCODING 250
SWIDTH 600 0
DWIDTH 10 0
BBX 8 16 1 0
BITMAP
1C
14
00
C3
C1
C3
C1
C3
C3
C1
C3
C3
C3
C3
7E
3C
ENDCHAR
STARTCHAR 00FB
ENCODING 251
SWIDTH 600 0
DWIDTH 10 0
BBX 8 16 1 0
BITMAP
3C
3C
00
C3
C3
C3
C3
C3
C3
C1
C3
C3
C3
C3
3C
2C
ENDCHAR
STARTCHAR 00FC
ENCODING 252
SWIDTH 600 0
DWIDTH 10 0
BBX 8 16 1 0
BITMAP
36
36
00
C3
C1
C3
C1
C3
C3
41
C3
C3
C3
43
3E
3E
ENDCHAR
STARTCHAR 00FD
ENCODING 253
SWIDTH 720 0
DWIDTH 12 0
BBX 8 16 2 0
BITMAP
38
38
00
83
83
C6
6C
6C
3C
30
30
30
10
30
30
30
ENDCHAR
STARTCHAR 00FE
ENCODING 254
SWIDTH 600 0
DWIDTH 10 0
BBX 8 13 1 0
BITMAP
C0
C0
FE
EF
C3
C3
41
C3
FE
EC
C0
C0
C0
ENDCHAR
STARTCHAR 00FF
ENCODING 255
SWIDTH 720 0
DWIDTH 12 0
BBX 8 16 2 0
BITMAP
6C
6C
00
83
83
C6
6C
6C
38
38
30
10
30
30
10
30
ENDCHAR
STARTCHAR 0100
ENCODING 256
SWIDTH 600 0
DWIDTH 10 0
BBX 8 16 1 0
BITMAP
7F
7F
00
3E
3E
63
C3
C3
C3
FF
FF
C3
41
C3
C3
C3
ENDCHAR
STARTCHAR 0101
ENCODING 257
SWIDTH 600 0
DWIDTH 10 0
BBX 8 16 1 0
BITMAP
7F
7F
00
3E
3E
63
C3
C3
C3
FF
FF
C3
41
C3
C3
C3
ENDCHAR
STARTCHAR 0102
ENCODING 258
SWIDTH 600 0
DWIDTH 10 0
BBX 8 17 1 0
BITMAP
20
22
3C
1C
3E
3E
63
C3
C3
C3
FF
FF
C3
41
C3
C3
C3
ENDCHAR
STARTCHAR 0103
ENCODING 259
SWIDTH 600 0
DWIDTH 10 0
BBX 8 17 1 0
BITMAP
20
22
3C
1C
3E
3E
63
C3
C3
C3
FF
FF
C3
41
C3
C3
C3
ENDCHAR
STARTCHAR 0104
ENCODING 260
SWIDTH 720 0
DWIDTH 12 0
BBX 10 17 1 -4
BITMAP
3E00
3E00
6300
C300
C100
C300
FF00
FF00
C300
4100
C300
C300
C300
0400
0CC0
0EC0
0780
ENDCHAR
STARTCHAR 0105
ENCODING 261
SWIDTH 720 0
DWIDTH 12 0
BBX 10 17 1 -4
BITMAP
3E00
3E00
6300
C300
C100
C300
FF00
FF00
C300
4100
C300
C300
C300
0400
0CC0
0EC0
0780
ENDCHAR
STARTCHAR 0106
ENCODING 262
SWIDTH 720 0
DWIDTH 12 0
BBX 8 16 2 0
BITMAP
04
1C
00
3E
3E
63
63
C0
C0
C0
C0
C0
C0
63
6F
3E
ENDCHAR
STARTCHAR 0107
ENCODING 263
SWIDTH 720 0
DWIDTH 12 0
BBX 8 16 2 0
BITMAP
04
1C
00
3E
3E
63
63
C0
C0
C0
C0
C0
C0
63
6F
3E
ENDCHAR
STARTCHAR 010A
ENCODING 266
SWIDTH 720 0
DWIDTH 12 0
BBX 8 15 2 1
BITMAP
18
00
3E
3E
63
63
C0
C0
C0
C0
C0
C0
63
77
3E
ENDCHAR
STARTCHAR 010B
ENCODING 267
SWIDTH 720 0
DWIDTH 12 0
BBX 8 15 2 1
BITMAP
18
00
3E
3E
63
63
C0
C0
C0
C0
C0
C0
63
77
3E
ENDCHAR
STARTCHAR 010C
ENCODING 268
SWIDTH 720 0
DWIDTH 12 0
BBX 8 16 2 0
BITMAP
3C
0C
00
3E
3E
63
63
C0
C0
C0
C0
C0
C0
63
6F
3E
ENDCHAR
STARTCHAR 010D
ENCODING 269
SWIDTH 720 0
DWIDTH 12 0
BBX 8 16 2 0
BITMAP
3C
0C
00
3E
3E
63
63
C0
C0
C0
C0
C0
C0
63
6F
3E
ENDCHAR
STARTCHAR 010E
ENCODING 270
SWIDTH 600 0
DWIDTH 10 0
BBX 8 16 1 0
BITMAP
3C
3C
00
FE
FE
C3
C1
C1
C1
41
C1
C1
C1
C3
AF
FE
ENDCHAR
STARTCHAR 010F
ENCODING 271
SWIDTH 600 0
DWIDTH 10 0
BBX 8 16 1 0
BITMAP
3C
3C
00
FE
FE
C3
C1
C1
C1
41
C1
C1
C1
C3
AF
FE
ENDCHAR
STARTCHAR 0110
ENCODING 272
SWIDTH 660 0
DWIDTH 11 0
BBX 9 13 1 0
BITMAP
7E00
7E00
6180
6080
6180
FD80
FC80
6180
6180
6180
6180
5780
7E00
ENDCHAR
STARTCHAR 0111
ENCODING 273
SWIDTH 660 0
DWIDTH 11 0
BBX 9 13 1 0
BITMAP
7E00
7E00
6180
6080
6180
FD80
FC80
6180
6180
6180
6180
5780
7E00
ENDCHAR
STARTCHAR 0112
ENCODING 274
SWIDTH 660 0
DWIDTH 11 0
BBX 8 16 1 0
BITMAP
5E
7E
00
FF
EF
C0
C0
C0
FE
FE
C0
C0
C0
C0
FF
FF
ENDCHAR
STARTCHAR 0113
ENCODING 275
SWIDTH 660 0
DWIDTH 11 0
BBX 8 16 1 0
BITMAP
5E
7E
00
FF
EF
C0
C0
C0
FE
FE
C0
C0
C0
C0
FF
FF
ENDCHAR
STARTCHAR 0114
ENCODING 276
SWIDTH 660 0
DWIDTH 11 0
BBX 8 16 1 1
BITMAP
62
3C
2C
FF
EF
C0
C0
C0
FE
FE
C0
C0
C0
C0
FF
FF
ENDCHAR
STARTCHAR 0115
ENCODING 277
SWIDTH 660 0
DWIDTH 11 0
BBX 8 16 1 1
BITMAP
62
3C
2C
FF
EF
C0
C0
C0
FE
FE
C0
C0
C0
C0
FF
FF
ENDCHAR
STARTCHAR 0116
ENCODING 278
SWIDTH 660 0
DWIDTH 11 0
BBX 8 15 1 1
BITMAP
18
00
FF
FF
C0
C0
C0
FE
FE
C0
C0
C0
C0
FF
FF
ENDCHAR
STARTCHAR 0117
ENCODING 279
SWIDTH 660 0
DWIDTH 11 0
BBX 8 15 1 1
BITMAP
18
00
FF
FF
C0
C0
C0
FE
FE
C0
C0
C0
C0
FF
FF
ENDCHAR
STARTCHAR 0118
ENCODING 280
SWIDTH 660 0
DWIDTH 11 0
BBX 9 17 1 -4
BITMAP
FF00
FF00
C000
C000
C000
FE00
FE00
C000
C000
C000
C000
FF00
FF00
0800
1880
1B80
0F00
ENDCHAR
STARTCHAR 0119
ENCODING 281
SWIDTH 660 0
DWIDTH 11 0
BBX 9 17 1 -4
BITMAP
FF00
FF00
C000
C000
C000
FE00
FE00
C000
C000
C000
C000
FF00
FF00
0800
1880
1B80
0F00
ENDCHAR
STARTCHAR 011A
ENCODING 282
SWIDTH 660 0
DWIDTH 11 0
BBX 8 16 1 0
BITMAP
34
08
00
FF
FF
C0
C0
C0
FE
EE
C0
C0
C0
C0
FF
FF
ENDCHAR
STARTCHAR 011B
ENCODING 283
SWIDTH 660 0
DWIDTH 11 0
BBX 8 16 1 0
BITMAP
34
08
00
FF
FF
C0
C0
C0
FE
EE
C0
C0
C0
C0
FF
FF
ENDCHAR
STARTCHAR 011E
ENCODING 286
SWIDTH 720 0
DWIDTH 12 0
BBX 8 17 2 0
BITMAP
42
46
3C
34
3E
3C
C0
C0
C0
C0
C0
DF
DD
C3
C3
FF
7C
ENDCHAR
STARTCHAR 011F
ENCODING 287
SWIDTH 720 0
DWIDTH 12 0
BBX 8 17 2 0
BITMAP
42
46
3C
34
3E
3C
C0
C0
C0
C0
C0
DF
DD
C3
C3
FF
7C
ENDCHAR
STARTCHAR 0120
ENCODING 288
SWIDTH 720 0
DWIDTH 12 0
BBX 8 16 2 0
BITMAP
18
18
00
3E
3C
C0
C0
C0
C0
C0
DF
DD
C3
C3
FF
7C
ENDCHAR
STARTCHAR 0121
ENCODING 289
SWIDTH 720 0
DWIDTH 12 0
BBX 8 16 2 0
BITMAP
18
18
00
3E
3C
C0
C0
C0
C0
C0
DF
DD
C3
C3
FF
7C
ENDCHAR
STARTCHAR 0122
ENCODING 290
SWIDTH 720 0
DWIDTH 12 0
BBX 8 17 2 -4
BITMAP
3E
3E
C0
C0
C0
C0
C0
DF
CD
C3
C3
FF
7C
00
1C
1C
0C
ENDCHAR
STARTCHAR 0123
ENCODING 291
SWIDTH 720 0
DWIDTH 12 0
BBX 8 17 2 -4
BITMAP
3E
3E
C0
C0
C0
C0
C0
DF
CD
C3
C3
FF
7C
00
1C
1C
0C
ENDCHAR
STARTCHAR 0126
ENCODING 294
SWIDTH 600 0
DWIDTH 10 0
BBX 8 13 1 0
BITMAP
C3
C3
FF
7D
C3
FF
EF
C3
C3
C3
C3
C3
C3
ENDCHAR
STARTCHAR 0127
ENCODING 295
SWIDTH 600 0
DWIDTH 10 0
BBX 8 13 1 0
BITMAP
C3
C3
FF
7D
C3
FF
EF
C3
C3
C3
C3
C3
C3
ENDCHAR
STARTCHAR 012A
ENCODING 298
SWIDTH 720 0
DWIDTH 12 0
BBX 6 16 3 0
BITMAP
B4
FC
00
78
78
30
30
30
30
10
30
30
30
30
78
78
ENDCHAR
STARTCHAR 012B
ENCODING 299
SWIDTH 720 0
DWIDTH 12 0
BBX 6 16 3 0
BITMAP
B4
FC
00
78
78
30
30
30
30
10
30
30
30
30
78
78
ENDCHAR
STARTCHAR 012C
ENCODING 300
SWIDTH 720 0
DWIDTH 12 0
BBX 6 17 3 0
BITMAP
CC
CC
78
48
F8
78
30
30
30
30
10
30
30
30
30
78
F8
ENDCHAR
STARTCHAR 012D
ENCODING 301
SWIDTH 720 0
DWIDTH 12 0
BBX 6 17 3 0
BITMAP
CC
CC
78
48
F8
78
30
30
30
30
10
30
30
30
30
78
F8
ENDCHAR
STARTCHAR 012E
ENCODING 302
SWIDTH 720 0
DWIDTH 12 0
BBX 5 17 4 -4
BITMAP
F0
F0
60
60
60
60
20
60
60
60
60
F0
F0
40
88
F8
70
ENDCHAR
STARTCHAR 012F
ENCODING 303
SWIDTH 720 0
DWIDTH 12 0
BBX 5 17 4 -4
BITMAP
F0
F0
60
60
60
60
20
60
60
60
60
F0
F0
40
88
F8
70
ENDCHAR
STARTCHAR 0130
ENCODING 304
SWIDTH 720 0
DWIDTH 12 0
BBX 4 16 4 0
BITMAP
60
60
00
F0
F0
60
60
60
60
20
60
60
60
60
F0
F0
ENDCHAR
STARTCHAR 0131
ENCODING 305
SWIDTH 720 0
DWIDTH 12 0
BBX 4 13 4 0
BITMAP
F0
F0
60
60
60
60
20
60
60
60
60
F0
F0
ENDCHAR
STARTCHAR 0132
ENCODING 306
SWIDTH 840 0
DWIDTH 14 0
BBX 12 13 1 0
BITMAP
F1F0
F1F0
6060
6060
6040
6060
2040
6060
6C60
6C60
6CC0
DFC0
F780
ENDCHAR
STARTCHAR 0133
ENCODING 307
SWIDTH 840 0
DWIDTH 14 0
BBX 12 13 1 0
BITMAP
F1F0
F1F0
6060
6060
6040
6060
2040
6060
6C60
6C60
6CC0
DFC0
F780
ENDCHAR
STARTCHAR 0136
ENCODING 310
SWIDTH 660 0
DWIDTH 11 0
BBX 8 17 1 -4
BITMAP
C3
C3
C6
DE
D8
E0
E0
D8
CC
CE
C6
C3
C1
00
1C
1C
0C
ENDCHAR
STARTCHAR 0137
ENCODING 311
SWIDTH 660 0
DWIDTH 11 0
BBX 8 17 1 -4
BITMAP
C3
C3
C6
DE
D8
E0
E0
D8
CC
CE
C6
C3
C1
00
1C
1C
0C
ENDCHAR
STARTCHAR 0139
ENCODING 313
SWIDTH 720 0
DWIDTH 12 0
BBX 8 16 2 0
BITMAP
70
70
00
C0
C0
C0
C0
C0
C0
80
C0
C0
C0
C0
FF
FF
ENDCHAR
STARTCHAR 013A
ENCODING 314
SWIDTH 720 0
DWIDTH 12 0
BBX 8 16 2 0
BITMAP
70
70
00
C0
C0
C0
C0
C0
C0
80
C0
C0
C0
C0
FF
FF
ENDCHAR
STARTCHAR 013B
ENCODING 315
SWIDTH 720 0
DWIDTH 12 0
BBX 8 17 2 -4
BITMAP
C0
C0
C0
C0
C0
C0
80
C0
C0
C0
C0
FF
FF
00
1C
1C
0C
ENDCHAR
STARTCHAR 013C
ENCODING 316
SWIDTH 720 0
DWIDTH 12 0
BBX 8 17 2 -4
BITMAP
C0
C0
C0
C0
C0
C0
80
C0
C0
C0
C0
FF
FF
00
1C
1C
0C
ENDCHAR
STARTCHAR 013D
ENCODING 317
SWIDTH 720 0
DWIDTH 12 0
BBX 8 13 2 0
BITMAP
CF
42
C3
C6
C6
CC
CC
C0
C0
C0
C0
FF
FF
ENDCHAR
STARTCHAR 013E
ENCODING 318
SWIDTH 720 0
DWIDTH 12 0
BBX 8 13 2 0
BITMAP
CF
42
C3
C6
C6
CC
CC
C0
C0
C0
C0
FF
FF
ENDCHAR
STARTCHAR 013F
ENCODING 319
SWIDTH 720 0
DWIDTH 12 0
BBX 8 13 2 0
BITMAP
C0
C0
C0
40
C0
C0
D8
D8
80
C0
C0
FF
FF
ENDCHAR
STARTCHAR 0140
ENCODING 320
SWIDTH 720 0
DWIDTH 12 0
BBX 8 13 2 0
BITMAP
C0
C0
C0
40
C0
C0
D8
D8
80
C0
C0
FF
FF
ENDCHAR
STARTCHAR 0141
ENCODING 321
SWIDTH 720 0
DWIDTH 12 0
BBX 8 13 2 0
BITMAP
C0
C0
C0
C0
C0
C0
B8
E0
C0
C0
C0
FF
FF
ENDCHAR
STARTCHAR 0142
ENCODING 322
SWIDTH 720 0
DWIDTH 12 0
BBX 8 13 2 0
BITMAP
C0
C0
C0
C0
C0
C0
B8
E0
C0
C0
C0
FF
FF
ENDCHAR
STARTCHAR 0143
ENCODING 323
SWIDTH 660 0
DWIDTH 11 0
BBX 9 16 1 0
BITMAP
1C00
1C00
0000
C380
C380
E380
E100
FB80
DB80
8D00
CF80
C780
C700
C300
C300
C300
ENDCHAR
STARTCHAR 0144
ENCODING 324
SWIDTH 660 0
DWIDTH 11 0
BBX 9 16 1 0
BITMAP
1C00
1C00
0000
C380
C380
E380
E100
FB80
DB80
8D00
CF80
C780
C700
C300
C300
C300
ENDCHAR
STARTCHAR 0145
ENCODING 325
SWIDTH 660 0
DWIDTH 11 0
BBX 9 17 1 -4
BITMAP
C380
C380
E380
E100
FB80
DB80
8D00
CF80
C780
C700
C300
C300
C300
0000
1C00
1C00
0C00
ENDCHAR
STARTCHAR 0146
ENCODING 326
SWIDTH 660 0
DWIDTH 11 0
BBX 9 17 1 -4
BITMAP
C380
C380
E380
E100
FB80
DB80
8D00
CF80
C780
C700
C300
C300
C300
0000
1C00
1C00
0C00
ENDCHAR
STARTCHAR 0147
ENCODING 327
SWIDTH 660 0
DWIDTH 11 0
BBX 9 16 1 0
BITMAP
3C00
3C00
0000
C380
C380
E380
E100
DB80
DB80
CD00
CF80
C780
C700
C300
C300
C300
ENDCHAR
STARTCHAR 0148
ENCODING 328
SWIDTH 660 0
DWIDTH 11 0
BBX 9 16 1 0
BITMAP
3C00
3C00
0000
C380
C380
E380
E100
DB80
DB80
CD00
CF80
C780
C700
C300
C300
C300
ENDCHAR
STARTCHAR 014A
ENCODING 330
SWIDTH 660 0
DWIDTH 11 0
BBX 9 16 1 -3
BITMAP
C380
C380
E380
E100
FB80
DB80
CD00
CF80
C780
C780
C300
8100
C300
3300
3F00
1E00
ENDCHAR
STARTCHAR 014B
ENCODING 331
SWIDTH 660 0
DWIDTH 11 0
BBX 9 16 1 -3
BITMAP
C380
C380
E380
E100
FB80
DB80
CD00
CF80
C780
C780
C300
8100
C300
3300
3F00
1E00
ENDCHAR
STARTCHAR 014C
ENCODING 332
SWIDTH 660 0
DWIDTH 11 0
BBX 8 16 1 0
BITMAP
5F
7F
00
3C
3C
63
C3
C3
C3
C1
C3
C3
C3
E3
6F
3C
ENDCHAR
STARTCHAR 014D
ENCODING 333
SWIDTH 660 0
DWIDTH 11 0
BBX 8 16 1 0
BITMAP
5F
7F
00
3C
3C
63
C3
C3
C3
C1
C3
C3
C3
E3
6F
3C
ENDCHAR
STARTCHAR 014E
ENCODING 334
SWIDTH 660 0
DWIDTH 11 0
BBX 8 17 1 0
BITMAP
62
62
3C
2C
3C
3C
63
C3
C3
C3
81
C3
C3
C3
E3
6F
3C
ENDCHAR
STARTCHAR 014F
ENCODING 335
SWIDTH 660 0
DWIDTH 11 0
BBX 8 17 1 0
BITMAP
62
62
3C
2C
3C
3C
63
C3
C3
C3
81
C3
C3
C3
E3
6F
3C
ENDCHAR
STARTCHAR 0150
ENCODING 336
SWIDTH 660 0
DWIDTH 11 0
BBX 9 16 1 0
BITMAP
3380
7380
0000
3C00
3C00
6300
C300
C300
C300
8100
C300
C300
C300
E300
6F00
3C00
ENDCHAR
STARTCHAR 0151
ENCODING 337
SWIDTH 660 0
DWIDTH 11 0
BBX 9 16 1 0
BITMAP
3380
7380
0000
3C00
3C00
6300
C300
C300
C300
8100
C300
C300
C300
E300
6F00
3C00
ENDCHAR
STARTCHAR 0152
ENCODING 338
SWIDTH 780 0
DWIDTH 13 0
BBX 11 13 1 0
BITMAP
3FE0
3FE0
6C00
CC00
CC00
CF80
4E80
CC00
CC00
CC00
6C00
6AE0
3FE0
ENDCHAR
STARTCHAR 0153
ENCODING 339
SWIDTH 780 0
DWIDTH 13 0
BBX 11 13 1 0
BITMAP
3FE0
3FE0
6C00
CC00
CC00
CF80
4E80
CC00
CC00
CC00
6C00
6AE0
3FE0
ENDCHAR
STARTCHAR 0154
ENCODING 340
SWIDTH 600 0
DWIDTH 10 0
BBX 8 16 1 0
BITMAP
1C
10
00
FE
FE
C3
C1
C3
C3
FC
EC
C6
C4
C3
C3
C3
ENDCHAR
STARTCHAR 0155
ENCODING 341
SWIDTH 600 0
DWIDTH 10 0
BBX 8 16 1 0
BITMAP
1C
10
00
FE
FE
C3
C1
C3
C3
FC
EC
C6
C4
C3
C3
C3
ENDCHAR
STARTCHAR 0156
ENCODING 342
SWIDTH 600 0
DWIDTH 10 0
BBX 8 17 1 -4
BITMAP
FE
FE
C3
C1
C3
C3
FC
FC
C6
C4
C3
C3
C3
00
38
38
18
ENDCHAR
STARTCHAR 0157
ENCODING 343
SWIDTH 600 0
DWIDTH 10 0
BBX 8 17 1 -4
BITMAP
FE
FE
C3
C1
C3
C3
FC
FC
C6
C4
C3
C3
C3
00
38
38
18
ENDCHAR
STARTCHAR 0158
ENCODING 344
SWIDTH 600 0
DWIDTH 10 0
BBX 8 16 1 0
BITMAP
34
3C
00
FE
FE
C3
C1
C3
C3
FC
EC
C6
C4
C3
C3
C3
ENDCHAR
STARTCHAR 0159
ENCODING 345
SWIDTH 600 0
DWIDTH 10 0
BBX 8 16 1 0
BITMAP
34
3C
00
FE
FE
C3
C1
C3
C3
FC
EC
C6
C4
C3
C3
C3
ENDCHAR
STARTCHAR 015A
ENCODING 346
SWIDTH 720 0
DWIDTH 12 0
BBX 8 16 2 0
BITMAP
04
08
00
3C
3E
63
63
C0
70
1E
06
C3
C3
43
6F
3C
ENDCHAR
STARTCHAR 015B
ENCODING 347
SWIDTH 720 0
DWIDTH 12 0
BBX 8 16 2 0
BITMAP
04
08
00
3C
3E
63
63
C0
70
1E
06
C3
C3
43
6F
3C
ENDCHAR
STARTCHAR 015E
ENCODING 350
SWIDTH 720 0
DWIDTH 12 0
BBX 8 16 2 -3
BITMAP
3C
3E
63
43
C0
70
38
0E
C3
C3
43
6F
3E
0C
14
3C
ENDCHAR
STARTCHAR 015F
ENCODING 351
SWIDTH 720 0
DWIDTH 12 0
BBX 8 16 2 -3
BITMAP
3C
3E
63
43
C0
70
38
0E
C3
C3
43
6F
3E
0C
14
3C
ENDCHAR
STARTCHAR 0160
ENCODING 352
SWIDTH 720 0
DWIDTH 12 0
BBX 8 16 2 0
BITMAP
34
3C
00
3C
3E
63
43
C0
70
1E
06
C3
C3
43
6F
3C
ENDCHAR
STARTCHAR 0161
ENCODING 353
SWIDTH 720 0
DWIDTH 12 0
BBX 8 16 2 0
BITMAP
34
3C
00
3C
3E
63
43
C0
70
1E
06
C3
C3
43
6F
3C
ENDCHAR
STARTCHAR 0162
ENCODING 354
SWIDTH 720 0
DWIDTH 12 0
BBX 8 16 2 -3
BITMAP
FF
FF
18
18
18
18
10
18
18
18
18
18
18
0C
1C
1C
ENDCHAR
STARTCHAR 0163
ENCODING 355
SWIDTH 720 0
DWIDTH 12 0
BBX 8 16 2 -3
BITMAP
FF
FF
18
18
18
18
10
18
18
18
18
18
18
0C
1C
1C
ENDCHAR
STARTCHAR 0164
ENCODING 356
SWIDTH 720 0
DWIDTH 12 0
BBX 8 16 2 0
BITMAP
3C
18
00
FF
FD
18
18
18
18
08
18
18
18
18
18
18
ENDCHAR
STARTCHAR 0165
ENCODING 357
SWIDTH 720 0
DWIDTH 12 0
BBX 8 16 2 0
BITMAP
3C
18
00
FF
FD
18
18
18
18
08
18
18
18
18
18
18
ENDCHAR
STARTCHAR 0166
ENCODING 358
SWIDTH 720 0
DWIDTH 12 0
BBX 8 13 2 0
BITMAP
FF
FD
18
18
18
FF
FD
18
18
18
18
18
18
ENDCHAR
STARTCHAR 0167
ENCODING 359
SWIDTH 720 0
DWIDTH 12 0
BBX 8 13 2 0
BITMAP
FF
FD
18
18
18
FF
FD
18
18
18
18
18
18
ENDCHAR
STARTCHAR 0168
ENCODING 360
SWIDTH 600 0
DWIDTH 10 0
BBX 8 16 1 0
BITMAP
12
7E
64
C3
C3
C3
C3
C3
C3
C1
C3
C3
C3
C3
7C
3C
ENDCHAR
STARTCHAR 0169
ENCODING 361
SWIDTH 600 0
DWIDTH 10 0
BBX 8 16 1 0
BITMAP
12
7E
64
C3
C3
C3
C3
C3
C3
C1
C3
C3
C3
C3
7C
3C
ENDCHAR
STARTCHAR 016A
ENCODING 362
SWIDTH 600 0
DWIDTH 10 0
BBX 8 16 1 0
BITMAP
5F
7F
00
C3
C3
C3
C3
C3
C3
C1
C3
C3
C3
C3
7C
3C
ENDCHAR
STARTCHAR 016B
ENCODING 363
SWIDTH 600 0
DWIDTH 10 0
BBX 8 16 1 0
BITMAP
5F
7F
00
C3
C3
C3
C3
C3
C3
C1
C3
C3
C3
C3
7C
3C
ENDCHAR
STARTCHAR 016C
ENCODING 364
SWIDTH 600 0
DWIDTH 10 0
BBX 8 17 1 0
BITMAP
62
62
3C
2C
C3
C3
C3
C3
C3
C3
C1
C3
C3
C3
C3
7C
3C
ENDCHAR
STARTCHAR 016D
ENCODING 365
SWIDTH 600 0
DWIDTH 10 0
BBX 8 17 1 0
BITMAP
62
62
3C
2C
C3
C3
C3
C3
C3
C3
C1
C3
C3
C3
C3
7C
3C
ENDCHAR
STARTCHAR 016E
ENCODING 366
SWIDTH 600 0
DWIDTH 10 0
BBX 8 16 1 0
BITMAP
18
3C
3C
D9
C1
C1
C1
C1
C1
C1
C1
C1
C1
C3
7E
3E
ENDCHAR
STARTCHAR 016F
ENCODING 367
SWIDTH 600 0
DWIDTH 10 0
BBX 8 16 1 0
BITMAP
18
3C
3C
D9
C1
C1
C1
C1
C1
C1
C1
C1
C1
C3
7E
3E
ENDCHAR
STARTCHAR 0170
ENCODING 368
SWIDTH 660 0
DWIDTH 11 0
BBX 9 16 1 0
BITMAP
7380
7280
0000
C300
C300
C300
C300
C300
C300
C100
C300
C300
C300
C300
7C00
3C00
ENDCHAR
STARTCHAR 0171
ENCODING 369
SWIDTH 660 0
DWIDTH 11 0
BBX 9 16 1 0
BITMAP
7380
7280
0000
C300
C300
C300
C300
C300
C300
C100
C300
C300
C300
C300
7C00
3C00
ENDCHAR
STARTCHAR 0172
ENCODING 370
SWIDTH 600 0
DWIDTH 10 0
BBX 8 17 1 -4
BITMAP
C3
C3
C3
C3
C3
C3
C1
C3
C3
C3
C3
3C
3C
10
23
3B
1E
ENDCHAR
STARTCHAR 0173
ENCODING 371
SWIDTH 600 0
DWIDTH 10 0
BBX 8 17 1 -4
BITMAP
C3
C3
C3
C3
C3
C3
C1
C3
C3
C3
C3
3C
3C
10
23
3B
1E
ENDCHAR
STARTCHAR 0174
ENCODING 372
SWIDTH 600 0
DWIDTH 10 0
BBX 8 16 1 0
BITMAP
3C
3C
00
C3
C1
C3
C9
DB
DB
CB
DB
59
FB
FF
66
66
ENDCHAR
STARTCHAR 0175
ENCODING 373
SWIDTH 600 0
DWIDTH 10 0
BBX 8 16 1 0
BITMAP
3C
3C
00
C3
C1
C3
C9
DB
DB
CB
DB
59
FB
FF
66
66
ENDCHAR
STARTCHAR 0176
ENCODING 374
SWIDTH 720 0
DWIDTH 12 0
BBX 8 16 2 0
BITMAP
3C
7C
00
83
83
C6
6C
6C
3C
30
30
30
10
30
30
30
ENDCHAR
STARTCHAR 0177
ENCODING 375
SWIDTH 720 0
DWIDTH 12 0
BBX 8 16 2 0
BITMAP
3C
7C
00
83
83
C6
6C
6C
3C
30
30
30
10
30
30
30
ENDCHAR
STARTCHAR 0178
ENCODING 376
SWIDTH 720 0
DWIDTH 12 0
BBX 8 16 2 0
BITMAP
6C
6C
00
83
83
C6
6C
6C
38
38
30
10
30
30
10
30
ENDCHAR
STARTCHAR 0179
ENCODING 377
SWIDTH 660 0
DWIDTH 11 0
BBX 8 16 1 0
BITMAP
0C
08
00
7F
7F
03
06
06
0C
18
18
30
30
60
FF
FF
ENDCHAR
STARTCHAR 017A
ENCODING 378
SWIDTH 660 0
DWIDTH 11 0
BBX 8 16 1 0
BITMAP
0C
08
00
7F
7F
03
06
06
0C
18
18
30
30
60
FF
FF
ENDCHAR
STARTCHAR 017B
ENCODING 379
SWIDTH 660 0
DWIDTH 11 0
BBX 8 16 1 0
BITMAP
18
18
00
7F
7F
03
06
06
0C
18
18
30
30
60
FF
FF
ENDCHAR
STARTCHAR 017C
ENCODING 380
SWIDTH 660 0
DWIDTH 11 0
BBX 8 16 1 0
BITMAP
18
18
00
7F
7F
03
06
06
0C
18
18
30
30
60
FF
FF
ENDCHAR
STARTCHAR 017D
ENCODING 381
SWIDTH 660 0
DWIDTH 11 0
BBX 8 16 1 0
BITMAP
3E
08
00
7F
7F
03
06
06
0C
18
18
30
30
60
FF
FF
ENDCHAR
STARTCHAR 017E
ENCODING 382
SWIDTH 660 0
DWIDTH 11 0
BBX 8 16 1 0
BITMAP
3E
08
00
7F
7F
03
06
06
0C
18
18
30
30
60
FF
FF
ENDCHAR
STARTCHAR 0218
ENCODING 536
SWIDTH 720 0
DWIDTH 12 0
BBX 8 17 2 -4
BITMAP
3C
3E
63
43
C0
70
1E
06
C3
C3
43
6F
3C
00
1C
1C
0C
ENDCHAR
STARTCHAR 0219
ENCODING 537
SWIDTH 720 0
DWIDTH 12 0
BBX 8 17 2 -4
BITMAP
3C
3E
63
43
C0
70
1E
06
C3
C3
43
6F
3C
00
1C
1C
0C
ENDCHAR
STARTCHAR 021A
ENCODING 538
SWIDTH 720 0
DWIDTH 12 0
BBX 8 17 2 -4
BITMAP
FF
FF
18
18
18
18
10
18
18
18
18
18
18
00
38
38
18
ENDCHAR
STARTCHAR 021B
ENCODING 539
SWIDTH 720 0
DWIDTH 12 0
BBX 8 17 2 -4
BITMAP
FF
FF
18
18
18
18
10
18
18
18
18
18
18
00
38
38
18
ENDCHAR
STARTCHAR 02C6
ENCODING 710
SWIDTH 660 0
DWIDTH 11 0
BBX 4 2 3 14
BITMAP
F0
F0
ENDCHAR
STARTCHAR 02C7
ENCODING 711
SWIDTH 660 0
DWIDTH 11 0
BBX 4 2 3 14
BITMAP
F0
F0
ENDCHAR
STARTCHAR 02D8
ENCODING 728
SWIDTH 720 0
DWIDTH 12 0
BBX 6 3 3 14
BITMAP
CC
CC
78
ENDCHAR
STARTCHAR 02D9
ENCODING 729
SWIDTH 720 0
DWIDTH 12 0
BBX 2 2 5 14
BITMAP
C0
C0
ENDCHAR
STARTCHAR 02DA
ENCODING 730
SWIDTH 720 0
DWIDTH 12 0
BBX 4 4 4 12
BITMAP
60
F0
F0
60
ENDCHAR
STARTCHAR 02DB
ENCODING 731
SWIDTH 720 0
DWIDTH 12 0
BBX 6 4 3 -4
BITMAP
40
C4
C4
78
ENDCHAR
STARTCHAR 02DC
ENCODING 732
SWIDTH 720 0
DWIDTH 12 0
BBX 6 2 3 14
BITMAP
FC
FC
ENDCHAR
STARTCHAR 02DD
ENCODING 733
SWIDTH 660 0
DWIDTH 11 0
BBX 7 2 2 14
BITMAP
E6
E6
ENDCHAR
STARTCHAR 1E80
ENCODING 7808
SWIDTH 600 0
DWIDTH 10 0
BBX 8 16 1 0
BITMAP
38
38
00
C3
C1
C3
C9
DB
DB
CB
DB
99
FB
FF
66
66
ENDCHAR
STARTCHAR 1E81
ENCODING 7809
SWIDTH 600 0
DWIDTH 10 0
BBX 8 16 1 0
BITMAP
38
38
00
C3
C1
C3
C9
DB
DB
CB
DB
99
FB
FF
66
66
ENDCHAR
STARTCHAR 1E82
ENCODING 7810
SWIDTH 600 0
DWIDTH 10 0
BBX 8 16 1 0
BITMAP
1C
1C
00
C3
C1
C3
C9
DB
DB
CB
DB
99
FB
FF
66
66
ENDCHAR
STARTCHAR 1E83
ENCODING 7811
SWIDTH 600 0
DWIDTH 10 0
BBX 8 16 1 0
BITMAP
1C
1C
00
C3
C1
C3
C9
DB
DB
CB
DB
99
FB
FF
66
66
ENDCHAR
STARTCHAR 1E84
ENCODING 7812
SWIDTH 600 0
DWIDTH 10 0
BBX 8 16 1 0
BITMAP
36
36
00
C3
C1
C3
C9
DB
CB
CB
DB
59
FB
FF
66
26
ENDCHAR
STARTCHAR 1E85
ENCODING 7813
SWIDTH 600 0
DWIDTH 10 0
BBX 8 16 1 0
BITMAP
36
36
00
C3
C1
C3
C9
DB
CB
CB
DB
59
FB
FF
66
26
ENDCHAR
STARTCHAR 1EF2
ENCODING 7922
SWIDTH 720 0
DWIDTH 12 0
BBX 8 16 2 0
BITMAP
70
70
00
83
83
C6
6C
6C
7C
30
30
30
10
30
30
30
ENDCHAR
STARTCHAR 1EF3
ENCODING 7923
SWIDTH 720 0
DWIDTH 12 0
BBX 8 16 2 0
BITMAP
70
70
00
83
83
C6
6C
6C
7C
30
30
30
10
30
30
30
ENDCHAR
STARTCHAR 2013
ENCODING 8211
SWIDTH 720 0
DWIDTH 12 0
BBX 8 2 2 5
BITMAP
FF
FF
ENDCHAR
STARTCHAR 2014
ENCODING 8212
SWIDTH 720 0
DWIDTH 12 0
BBX 8 2 2 5
BITMAP
FF
FF
ENDCHAR
STARTCHAR 2018
ENCODING 8216
SWIDTH 720 0
DWIDTH 12 0
BBX 4 7 4 6
BITMAP
F0
40
C0
60
60
30
30
ENDCHAR
STARTCHAR 2019
ENCODING 8217
SWIDTH 720 0
DWIDTH 12 0
BBX 4 7 4 6
BITMAP
F0
60
30
60
60
C0
C0
ENDCHAR
STARTCHAR 201A
ENCODING 8218
SWIDTH 720 0
DWIDTH 12 0
BBX 4 5 4 0
BITMAP
F0
70
30
60
60
ENDCHAR
STARTCHAR 201C
ENCODING 8220
SWIDTH 780 0
DWIDTH 13 0
BBX 9 7 2 6
BITMAP
F780
C500
C600
6600
6600
3180
3180
ENDCHAR
STARTCHAR 201D
ENCODING 8221
SWIDTH 720 0
DWIDTH 12 0
BBX 8 7 2 6
BITMAP
F7
65
33
66
62
C6
C6
ENDCHAR
STARTCHAR 201E
ENCODING 8222
SWIDTH 660 0
DWIDTH 11 0
BBX 9 5 1 0
BITMAP
F780
7380
3180
6300
6300
ENDCHAR
STARTCHAR 2020
ENCODING 8224
SWIDTH 720 0
DWIDTH 12 0
BBX 8 13 2 0
BITMAP
18
18
18
FF
FF
18
08
18
18
18
18
18
18
ENDCHAR
STARTCHAR 2021
ENCODING 8225
SWIDTH 720 0
DWIDTH 12 0
BBX 8 13 2 0
BITMAP
18
18
18
18
FF
18
18
18
FF
FF
18
18
18
ENDCHAR
STARTCHAR 2022
ENCODING 8226
SWIDTH 660 0
DWIDTH 11 0
BBX 4 4 4 4
BITMAP
60
F0
F0
60
ENDCHAR
STARTCHAR 2026
ENCODING 8230
SWIDTH 720 0
DWIDTH 12 0
BBX 10 3 1 0
BITMAP
C6C0
C4C0
C6C0
ENDCHAR
STARTCHAR 2030
ENCODING 8240
SWIDTH 660 0
DWIDTH 11 0
BBX 15 13 -2 0
BITMAP
7000
D180
B980
E900
8E00
5400
7F8E
0AD6
0BD6
135A
3252
3252
018C
ENDCHAR
STARTCHAR 2039
ENCODING 8249
SWIDTH 660 0
DWIDTH 11 0
BBX 5 8 3 1
BITMAP
18
18
20
20
C0
C0
20
18
ENDCHAR
STARTCHAR 203A
ENCODING 8250
SWIDTH 660 0
DWIDTH 11 0
BBX 5 8 3 1
BITMAP
C0
C0
30
30
18
18
30
C0
ENDCHAR
STARTCHAR 2044
ENCODING 8260
SWIDTH 180 0
DWIDTH 3 0
BBX 7 11 -2 1
BITMAP
06
06
04
18
18
30
20
20
40
C0
C0
ENDCHAR
STARTCHAR 2070
ENCODING 8304
SWIDTH 660 0
DWIDTH 11 0
BBX 5 7 3 6
BITMAP
70
58
D8
E8
C8
50
70
ENDCHAR
STARTCHAR 2074
ENCODING 8308
SWIDTH 660 0
DWIDTH 11 0
BBX 5 7 3 6
BITMAP
30
30
50
D0
F8
10
10
ENDCHAR
STARTCHAR 2075
ENCODING 8309
SWIDTH 660 0
DWIDTH 11 0
BBX 5 7 3 6
BITMAP
F8
C0
C0
F8
08
48
70
ENDCHAR
STARTCHAR 2076
ENCODING 8310
SWIDTH 660 0
DWIDTH 11 0
BBX 5 7 3 6
BITMAP
70
40
C0
F0
C8
48
70
ENDCHAR
STARTCHAR 2077
ENCODING 8311
SWIDTH 660 0
DWIDTH 11 0
BBX 5 7 3 6
BITMAP
F8
18
10
20
20
20
20
ENDCHAR
STARTCHAR 2078
ENCODING 8312
SWIDTH 660 0
DWIDTH 11 0
BBX 5 7 3 6
BITMAP
70
48
48
F8
C8
48
70
ENDCHAR
STARTCHAR 2079
ENCODING 8313
SWIDTH 660 0
DWIDTH 11 0
BBX 4 7 4 6
BITMAP
E0
90
90
F0
10
30
E0
ENDCHAR
STARTCHAR 2080
ENCODING 8320
SWIDTH 660 0
DWIDTH 11 0
BBX 5 7 3 0
BITMAP
70
58
D8
E8
C8
50
70
ENDCHAR
STARTCHAR 2081
ENCODING 8321
SWIDTH 660 0
DWIDTH 11 0
BBX 3 7 4 0
BITMAP
40
C0
40
40
40
40
E0
ENDCHAR
STARTCHAR 2082
ENCODING 8322
SWIDTH 660 0
DWIDTH 11 0
BBX 5 7 3 0
BITMAP
70
48
C8
30
40
C0
F8
ENDCHAR
STARTCHAR 2083
ENCODING 8323
SWIDTH 660 0
DWIDTH 11 0
BBX 5 7 3 0
BITMAP
70
C8
18
78
08
48
70
ENDCHAR
STARTCHAR 2084
ENCODING 8324
SWIDTH 660 0
DWIDTH 11 0
BBX 5 7 3 0
BITMAP
30
30
50
D0
F8
10
10
ENDCHAR
STARTCHAR 2085
ENCODING 8325
SWIDTH 660 0
DWIDTH 11 0
BBX 5 7 3 0
BITMAP
F8
C0
C0
F8
08
48
70
ENDCHAR
STARTCHAR 2086
ENCODING 8326
SWIDTH 660 0
DWIDTH 11 0
BBX 5 7 3 0
BITMAP
70
40
C0
F0
C8
48
70
ENDCHAR
STARTCHAR 2087
ENCODING 8327
SWIDTH 660 0
DWIDTH 11 0
BBX 5 7 3 0
BITMAP
F8
18
10
30
20
20
20
ENDCHAR
STARTCHAR 2088
ENCODING 8328
SWIDTH 660 0
DWIDTH 11 0
BBX 5 7 3 0
BITMAP
70
48
48
F8
C8
48
70
ENDCHAR
STARTCHAR 2089
ENCODING 8329
SWIDTH 660 0
DWIDTH 11 0
BBX 4 7 4 0
BITMAP
E0
90
90
F0
10
30
E0
ENDCHAR
STARTCHAR 20AC
ENCODING 8364
SWIDTH 660 0
DWIDTH 11 0
BBX 10 13 0 0
BITMAP
0F80
1BC0
18C0
FE00
7A00
3000
7E00
7E00
3000
3000
30C0
1FC0
1F80
ENDCHAR
STARTCHAR 2122
ENCODING 8482
SWIDTH 660 0
DWIDTH 11 0
BBX 9 6 1 7
BITMAP
F480
4680
4780
2480
4480
0480
ENDCHAR
STARTCHAR 2153
ENCODING 8531
SWIDTH 720 0
DWIDTH 12 0
BBX 10 13 1 0
BITMAP
4000
C300
4300
4200
4400
4800
EB80
1E40
1040
23C0
6440
6740
0380
ENDCHAR
STARTCHAR 2154
ENCODING 8532
SWIDTH 720 0
DWIDTH 12 0
BBX 12 13 0 0
BITMAP
7800
4840
48C0
3100
4100
C200
FEE0
0420
04E0
08E0
0830
19F0
00E0
ENDCHAR
STARTCHAR 215B
ENCODING 8539
SWIDTH 720 0
DWIDTH 12 0
BBX 10 13 1 0
BITMAP
4000
C300
4300
4200
4400
4800
FB80
1240
13C0
27C0
2440
6640
0380
ENDCHAR
STARTCHAR 215C
ENCODING 8540
SWIDTH 720 0
DWIDTH 12 0
BBX 11 13 1 0
BITMAP
F000
9180
7100
B300
9600
B700
FDC0
0A40
0BC0
13E0
1260
3240
01C0
ENDCHAR
STARTCHAR 215D
ENCODING 8541
SWIDTH 660 0
DWIDTH 11 0
BBX 11 13 0 0
BITMAP
F800
8180
F300
1200
1600
9400
7DC0
0E40
0A40
13E0
1220
3240
01C0
ENDCHAR
STARTCHAR 215E
ENCODING 8542
SWIDTH 720 0
DWIDTH 12 0
BBX 10 13 1 0
BITMAP
F000
2300
2300
2200
6C00
6800
7B80
1A40
13C0
2640
6640
6240
0380
ENDCHAR
STARTCHAR 2202
ENCODING 8706
SWIDTH 660 0
DWIDTH 11 0
BBX 8 13 2 0
BITMAP
7C
34
06
03
03
3F
77
C3
C3
C3
63
3C
3C
ENDCHAR
STARTCHAR 2212
ENCODING 8722
SWIDTH 660 0
DWIDTH 11 0
BBX 8 2 2 5
BITMAP
FF
FF
ENDCHAR
STARTCHAR 221E
ENCODING 8734
SWIDTH 660 0
DWIDTH 11 0
BBX 11 7 0 3
BITMAP
39C0
FFE0
C660
C660
C620
FFE0
39C0
ENDCHAR
STARTCHAR 2248
ENCODING 8776
SWIDTH 660 0
DWIDTH 11 0
BBX 8 8 2 2
BITMAP
32
FF
CC
00
00
33
FF
CC
ENDCHAR
STARTCHAR 2260
ENCODING 8800
SWIDTH 660 0
DWIDTH 11 0
BBX 8 11 2 1
BITMAP
03
06
0C
FF
10
18
FF
FF
60
C0
C0
ENDCHAR
STARTCHAR 2264
ENCODING 8804
SWIDTH 660 0
DWIDTH 11 0
BBX 8 13 2 -2
BITMAP
06
02
0C
30
30
40
30
30
0C
06
06
FF
FF
ENDCHAR
STARTCHAR 2265
ENCODING 8805
SWIDTH 660 0
DWIDTH 11 0
BBX 8 13 2 -2
BITMAP
40
60
30
0C
0C
06
0C
30
30
60
40
FF
FF
ENDCHAR
STARTCHAR 25CA
ENCODING 9674
SWIDTH 660 0
DWIDTH 11 0
BBX 7 8 2 3
BITMAP
18
7C
6C
C6
EE
6C
38
38
ENDCHAR
ENDFONT
